# xmcd CD database file
#
# Track frame offsets:
#	150
#	27421
#	48032
#	77936
#	108668
#	134506
#	157259
#
# Disc length: 2448 seconds
#
# Revision: 0
# Processed by: cddbd v1.5.2PL0 Copyright (c) Steve Scherf et al.
# Submitted via: CDex 1.70beta3
#
DISCID=5d098e07
DTITLE=Youichi Murata - Compositions  (EWCD 0161)
DYEAR=1900
DGENRE=Jazz
TTITLE0=A Change of Colors
TTITLE1=Vast Continent
TTITLE2=Collage
TTITLE3=Double Clutch
TTITLE4=Bustle and Silence
TTITLE5=Walkin' Around the 'K'
TTITLE6=The Puddles
EXTD=
EXTT0=
EXTT1=
EXTT2=
EXTT3=
EXTT4=
EXTT5=
EXTT6=
PLAYORDER=
